Patient4_TMGait_0pt5_02_left_12_EMG.mot
version=1
nRows=40
nColumns=33
inDegrees=no
endheader
time	1LAddLong	2LGlutMax	3LGlutMed	4LIliopsoas	5LSemiMemb	6LBicFemLong	7LRecFem	8LVastMed	9LVastLat	10LGasMed	11LTibAnt	12lTibPost	13LPeroneusLong	14LSol	15LExtDigLong	16LFlexDigLong	17RAddLong	18RGlutMax	19RGlutMed	20RIliopsoas	21RSemiMemb	22RBicFemLong	23RRecFem	24RVastMed	25RVastLat	26RGasMed	27RTibAnt	28RTibPost	29RPeroneusLong	30RSol	31RExtDigLong	32RFlexDigLong
15.945	0.017853	-0.1384	-0.3804	0.013123	0.031738	-0.10315	0.004272	0.007782	-0.10574	0.22995	0.048523	-0.02655	0.007019	-1.3263	-0.011292	-0.11459	-0.095215	-0.001221	0.26306	-0.006714	-0.15793	-0.22751	0.090027	-0.059662	-0.09613	-0.001984	0.096588	-0.002899	0.55298	0.089264	-0.001526	-0.00473
15.946	0.014038	-0.15396	-0.39063	-0.002136	0.05661	-0.098877	0.050354	0.002899	-0.090332	0.064087	-0.008087	-0.050507	0.014343	-1.188	-0.018158	0.15198	-0.033569	-0.011749	0.22217	0.1532	-0.19959	-0.33676	0.19318	-0.17929	-0.11047	-0.012207	-0.000458	-0.000153	0.58563	0.18433	-0.005188	-0.00824
15.947	0.010376	-0.17685	-0.38513	0.002441	0.05722	-0.092926	0.02121	-0.001373	-0.066528	-0.13641	0.036011	-0.016327	0.043945	-0.33798	-0.008545	-0.30746	-0.002899	-0.010071	0.1944	0.18295	-0.27527	-0.34409	0.15549	-0.068512	-0.069122	-0.00351	-0.11124	-0.002594	0.58334	0.056305	-0.002441	-0.012817
15.948	0.016937	-0.15686	-0.38254	0.006256	0.029907	-0.07843	0.054474	-0.009613	-0.058289	-0.15869	-0.00351	0.031586	0.031586	0.37567	-0.002594	-0.024567	0.008087	-0.042572	0.023651	0.11627	-0.45807	-0.25345	0.1651	-0.048981	-0.045471	-0.002747	-0.068207	0.001526	0.93964	-0.018616	0	-0.00946
15.949	0.021057	-0.16098	-0.39734	0.011902	0.015564	-0.062561	0.009918	-0.016022	0.030365	-0.17868	-0.00412	0.044861	0.002899	0.12665	0.009308	-0.066223	-0.011902	-0.00824	-0.023193	0.031281	-0.3392	-0.13687	0.17044	-0.018768	0.011749	-0.002441	0.02533	-0.002747	0.00946	0.061646	-0.001984	-0.01236
15.95	0.021667	-0.11246	-0.38849	0.005798	-0.00351	-0.029297	0.014496	-0.02121	0.088043	-0.20737	0.006256	0.021362	-0.024567	0.2092	0.025787	-0.048523	-0.003204	-0.001984	0.14633	-0.045471	0.008392	-0.074615	0.011292	-0.020599	0.058441	-0.003357	0.12283	-0.002594	-0.51865	0.098419	-0.001221	-0.015869
15.951	0.008698	-0.10971	-0.38101	0.006409	0.028229	0.041656	0.031891	-0.018158	0.051575	-0.22415	0.01709	0.008087	-0.065613	0.289	0.013275	-0.06424	-0.043488	0.031891	0.46509	-0.19012	-0.067291	-0.061035	-0.11398	0.089417	0.16937	0.005188	0.18784	-0.003967	-1.0124	0.056152	0.000153	-0.013733
15.952	0.010834	-0.10712	-0.38315	0.000458	0.028839	0.10208	0.047913	-0.00946	-0.002136	-0.19394	0.007629	0.010223	-0.12802	0.069122	0.003357	-0.055237	-0.079041	0.060577	0.090332	-0.17136	-0.3067	0.027161	-0.083771	0.10117	0.1593	0.007935	0.10437	0.008545	-0.88089	0.043335	0.000458	-0.015869
15.953	0.011292	-0.11917	-0.39917	0.004272	0.011139	0.007477	0.056152	-0.007935	-0.00824	-0.16068	0.006714	-0.006409	-0.11047	0.10239	0.018158	-0.002594	-0.062256	0.058289	0.028076	-0.11459	-0.43778	0.10254	0.004272	0.10254	0.11353	0.016785	-0.007019	-0.002594	-0.83908	0.056152	0.001373	-0.027161
15.954	0.008698	-0.13245	-0.38132	0.005798	0.009918	-0.039825	0.023499	-0.002594	-0.042725	-0.14191	0	-0.009003	-0.112	0.067291	0.031281	0.04303	0.000458	0.05249	0.048828	-0.02243	-0.36545	0.050049	0.16617	0.006714	0.003357	0.012817	-0.05127	0	-0.033112	0.17838	0.000458	-0.018616
15.955	0.008087	-0.15945	-0.33646	0.007629	0.000305	-0.049744	0.016327	-0.002136	-0.06546	-0.14252	0.009918	-0.008087	-0.02243	0.032806	0.040436	-0.03067	0.053406	0.072021	0.026398	0.045929	-0.3685	0.010376	0.17334	-0.02594	-0.046082	0.005646	-0.054016	0.001373	1.4265	0.20584	-0.001678	-0.011292
15.956	0.008545	-0.15915	-0.36255	-0.007019	-0.000458	-0.015564	0.005646	0.00061	-0.076752	-0.088501	-0.005798	-0.008392	0.1001	0.097198	0.036316	-0.065308	0.080261	0.091858	0.19821	0.090332	-0.19272	-0.068359	0.2121	-0.063934	-0.004883	-0.003052	0.01236	0.00946	1.3805	0.14938	-0.002136	-0.001373
15.957	0.005646	-0.18753	-0.38238	-0.001373	0.009003	-0.014038	0.032959	-0.003357	-0.075836	0.021362	-0.002289	0.013123	0.11566	0.14893	0.028992	-0.05127	0.062103	0.08194	0.39917	0.2066	-0.082092	-0.12146	0.20187	-0.18234	0.055237	-0.007629	0.052185	0.005646	0.8136	0.058899	-0.001068	-0.006866
15.958	0.003357	-0.19333	-0.37796	0.009308	-0.006104	-0.010986	0.059357	0.001678	-0.081024	0.056305	-0.001984	-0.017853	0.04303	0.42191	0.011139	-0.005035	-0.042419	0.078735	0.35492	0.30807	-0.1326	-0.13626	0.17029	-0.19196	0.049591	-0.003357	0.009155	0.001221	0.57617	0.018158	-0.002136	0.000763
15.959	0.001984	-0.19287	-0.36255	0.016327	-0.049438	-0.019989	0.065002	-0.001068	-0.092468	0.060272	0.009003	-0.001678	0.006714	0.53223	-0.00061	0.036163	-0.057373	0.060272	0.53619	0.22705	-0.094452	-0.13138	0.12528	-0.16602	0.12085	-0.007324	-0.006561	0.003662	0.45517	0.005188	0.000305	-0.011292
15.96	0.007172	-0.21622	-0.39383	-0.005341	-0.12466	-0.041656	0.027008	-0.001526	-0.016174	0.093994	0.005035	0.027008	-0.004578	0.38727	-0.00824	0.041199	-0.085144	0.079193	0.37979	0.085602	-0.17197	-0.094147	0.004272	-0.010834	0.25543	0.000763	-0.019836	0.009613	0.46539	0.045166	-0.001373	0.001526
15.961	0.020294	-0.22385	-0.40848	-0.005493	-0.06134	-0.026093	-0.01358	-0.017853	0.085144	-0.002136	-0.00351	-0.046997	0.001068	-0.079956	-0.000458	0.001221	-0.12375	0.017395	0.48874	0.021515	-0.31296	-0.025635	-0.075226	0.15778	0.2832	-0.003357	0.058746	0.006409	0.59692	0.002289	-0.000763	-0.005646
15.962	0.025177	-0.22751	-0.36606	-0.001221	0.10696	-0.076294	0.046387	-0.021973	0.031586	-0.19012	0.002594	0.066071	0.010223	-0.29892	-0.015564	0.006866	-0.11414	0.061951	0.40329	-0.031738	-0.070038	0.087891	-0.08255	0.20691	0.2594	0.006561	0.075073	0.003662	0.19821	-0.053711	-0.002441	-0.00412
15.963	0.019073	-0.21576	-0.34485	0.005798	0.12329	-0.060272	0.11124	-0.012054	-0.025024	-0.11063	-0.000305	0.11002	0.019836	-0.20172	-0.013733	-0.007172	-0.074768	0.13367	0.046387	-0.010071	0.18845	0.083771	0.076904	-0.021515	0.020294	0.00351	0.053558	0.003967	-0.63171	0.001068	-0.002899	-0.00824
15.964	0.015717	-0.1944	-0.38925	0.008087	0.089111	-0.036469	0.13412	0	-0.048218	0.075073	0.014038	0.11749	0.016937	-0.024414	-0.000916	-0.014801	-0.041199	0.13962	-0.056763	-0.020752	0.072632	0.07431	0.23941	-0.023651	-0.22278	0	0.088959	-0.006561	-0.65018	0.074768	-0.000458	-0.002899
15.965	0.012665	-0.168	-0.41626	-0.001373	0.044708	-0.013428	0.13687	-0.006409	-0.072784	0.19959	0.003357	0.036011	0.03006	0.11932	0	-0.00824	-0.011444	0.10468	0.20813	-0.050201	-0.061646	0.13336	0.23117	0.20233	-0.34958	-0.002289	0.067596	0.001221	-0.27527	0.089722	-0.001984	-0.011902
15.966	0.006409	-0.22232	-0.41336	0.01709	0.027466	-0.006714	0.11047	-0.008087	-0.0737	0.20645	-0.003967	-0.023651	0.016937	0.11566	0.0177	0.018005	0.021362	0.06424	0.22964	-0.013123	-0.093231	0.29053	0.19562	0.29694	-0.3244	0.00351	-0.043335	0.001373	0.58823	0.053101	0.000763	-0.011597
15.967	0.018158	-0.1973	-0.39429	0.010834	-0.004578	0.003815	0.034485	-0.000763	-0.026398	0.11429	0.003357	-0.049896	-0.00412	0.11993	-0.001373	-0.010529	0.046234	0.055695	0.49789	-0.047455	-0.17212	0.3833	0.17029	0.29312	-0.16296	-0.002899	-0.034027	0.001984	0.87174	0.091095	-0.002594	-0.015564
15.968	0.015717	-0.18173	-0.33386	0.006714	-0.029297	-0.026245	0.009918	0.001373	0.00412	0.080719	0.00351	-0.045319	-0.006714	0.03479	-0.016785	-0.007477	0.061493	0.019836	0.58105	-0.047302	-0.23117	0.088348	0.19974	0.26199	-0.093231	0.001373	-0.014191	-0.005341	0.51346	0.11871	-0.001221	-0.014038
15.969	0.015717	-0.2272	-0.35446	0.005951	-0.026245	-0.088501	0.046539	0.004272	0.006866	0.091248	-0.001373	-0.031281	-0.000916	-0.079803	-0.023193	-0.002136	0.056	0.028381	0.85007	-0.00824	-0.062561	-0.089111	0.15243	0.22919	-0.06485	-0.000458	-0.018768	0.000916	-0.2301	-0.057373	-0.00061	-0.014496
15.97	0.015564	-0.15717	-0.39352	-0.012207	0.029144	-0.10208	0.037384	0.006256	-0.037079	-0.12482	0.00412	-0.015717	-0.033417	-0.049133	-0.012665	0.003357	-0.003662	0.076599	0.24231	0.016174	0.093384	-0.092621	-0.16449	0.21805	0.014191	-0.000153	0.012817	-0.000916	-0.43396	-0.098419	-0.002136	-0.013428
15.971	0.017853	-0.17838	-0.39612	0.010223	0.050507	-0.092316	0.063477	0.000153	-0.038147	-0.17303	0.012512	-0.016174	-0.041962	0.10666	-0.00824	0.015411	-0.069733	0.091858	0.21149	-0.058289	0.0354	-0.11185	-0.27481	0.23041	0.060272	0.001373	0.010071	0.003357	-0.17151	-0.003967	0.001984	-0.013275
15.972	0.019989	-0.17792	-0.39536	0.00351	0.001221	-0.046387	0.072021	-0.00061	-0.028076	-0.068817	0.016632	-0.006561	-0.027771	0.14038	0.005188	0.011902	-0.052032	0.04776	0.34653	-0.063934	0.092468	-0.12482	-0.10727	0.12192	-0.003662	0.003815	-0.002289	-0.001984	-0.082703	0.000153	-0.000153	-0.012054
15.973	0.009308	-0.17929	-0.37582	0.006256	-0.039063	-0.039368	0.085754	-0.018921	-0.030365	0.09552	0.024109	-0.003357	0.013885	0.17822	0.017242	-0.014496	-0.023346	0.010681	0.031281	-0.067596	0.32349	-0.11688	0.065002	0.03479	-0.014191	0.005493	0.017853	-0.00351	0.011749	-0.007935	-0.000763	-0.016022
15.974	0.010376	-0.13886	-0.3923	0.002289	0.030823	-0.075989	0.073547	-0.036621	-0.014191	0.27451	0.023499	-0.002747	0.014496	0.17029	0.00473	-0.019531	0.049438	0.049133	-0.36591	-0.042572	0.42419	-0.121	0.09964	-0.000305	-0.017395	-0.009003	0.065918	0.001373	-0.18509	0.032501	-0.001526	-0.006409
15.975	0.017853	-0.090485	-0.39795	-0.019989	0.069122	-0.037842	0.052032	-0.002899	-0.014038	0.29251	0.019073	-0.00061	0.000305	0.13458	-0.003052	-0.007935	0.020752	0.14282	-0.86227	-0.031738	0.26596	-0.088501	0.049896	0.04425	0.07309	-0.003052	0.063782	-0.002747	-0.17883	0.012817	-0.000305	0.002289
15.976	0.011444	-0.05722	-0.34927	-0.014954	0.040894	-0.00412	0.046234	-0.010986	-0.010071	-0.087585	0.003052	-0.006866	-0.022888	0.083771	0.003815	-0.000458	-0.072327	0.1648	-0.66116	-0.023956	-0.2211	-0.001068	0.087433	0.084686	0.06958	0.000305	0.056915	-0.001984	-0.049438	-0.008392	0.001068	-0.001068
15.977	0.017853	-0.054932	-0.39536	0.003662	0.019989	0.054779	0.02594	0.000305	-0.000458	-0.19684	0.026703	-0.003662	-0.037842	0.075073	0.004272	0.004425	-0.033264	0.08606	0.014954	-0.063324	0.008087	-0.098877	0.12909	-0.024567	-0.071411	-0.003357	0.005341	-0.003204	0.03952	-0.020905	-0.001678	-0.00412
15.978	0.003357	0.016937	-0.38971	0.010986	-0.013123	0.069427	0.05188	0.003357	-0.003052	-0.2066	0.018616	-0.002899	-0.031433	0.067139	0.002747	0.002441	-0.030975	0.071259	0.47165	-0.10483	0.2446	-0.086975	0.16068	-0.13382	-0.20401	-0.002136	-0.064392	-0.003204	0.24567	-0.029297	0.001678	-0.006561
15.979	0.005035	0.031586	-0.3833	0.009613	-0.028992	0.006561	0.044403	-0.003204	-0.007324	-0.17349	0.018768	0.005646	-0.035706	0.027008	0.002594	-0.00061	-0.040283	0.020599	1.4549	-0.062866	0.3804	0.074921	0.083771	-0.31036	-0.22476	-0.002441	-0.011139	-0.00351	0.24338	-0.076904	-0.002441	-0.00824
15.98	0.020142	0.021362	-0.4129	0.007324	-0.024567	-0.054932	0.043182	-0.000763	-0.010986	-0.038147	-0.005493	-0.000763	-0.044403	0.003815	-0.005341	-0.006561	-0.003052	-0.079041	0.67368	0.022125	0.034332	0.30563	0.10407	-0.22827	-0.12421	-0.003052	0.088196	-0.004883	0.50247	-0.080566	-0.002136	-0.009766
15.981	0.013428	-0.00351	-0.40451	-0.007324	-0.009155	-0.089569	0.0383	-0.001221	-0.042725	-0.024414	-0.031738	0.000153	-0.035248	0.043335	-0.0177	-0.008087	0.017548	-0.076904	0.084076	0.087433	0.18448	0.30548	0.1239	-0.11185	-0.048676	0.007629	0.09201	-0.000153	0.849	-0.19058	0.000458	-0.010223
15.982	0.012512	0.006561	-0.39337	0.019684	0.016174	-0.11398	0.026093	-0.002289	-0.050354	-0.07309	-0.049591	0.003357	0.022125	0.036621	-0.019379	-0.009766	0.061188	-0.036469	-0.10544	0.10757	0.67902	0.11292	0.23056	-0.177	-0.025787	0.00473	0.11307	-0.000763	-0.10681	-0.215	-0.001831	-0.012207
15.983	0.01297	0.034637	-0.3949	0.017242	0.062103	-0.096436	0.057068	-0.002747	-0.033112	-0.061798	-0.042419	0.00351	0.048523	0.044403	-0.022278	-0.004272	0.065155	-0.023499	-0.005951	0.15091	0.72327	-0.034485	0.29892	-0.44846	0.018311	0.001068	0.11688	-0.001984	-0.55862	-0.13825	-0.002899	-0.011139
15.984	0.00824	0.029144	-0.37827	0.009308	0.043945	0.001068	0.050201	-0.00412	-0.03418	-0.037537	-0.032959	0.006104	0.02243	0.052795	-0.020905	-0.006256	0.002441	0.051727	-0.053864	0.1474	0.44434	-0.049591	0.25375	-0.31937	0.10529	-0.011749	0.017548	-0.00351	-0.61325	0.011749	-0.00061	-0.018921
